<?xml version="1.0" encoding="utf-8"?>
<!-- Generator: Adobe Illustrator 26.5.0, SVG Export Plug-In . SVG Version: 6.00 Build 0)  -->
<svg version="1.1" id="Layer_1" xmlns="http://www.w3.org/2000/svg" xmlns:xlink="http://www.w3.org/1999/xlink" x="0px" y="0px"
	 viewBox="0 0 97 97" style="enable-background:new 0 0 97 97;" xml:space="preserve">
<style type="text/css">
	.st0{enable-background:new    ;}
	.st1{fill:#FFE27D;}
	.st2{fill:none;}
	.st3{fill:none;stroke:#FFE27D;stroke-width:3;}
</style>
<g id="Group_150" transform="translate(-100 -872)">
	<g class="st0">
		<path class="st1" d="M127,940.8l3.8-3.7c2.6,4.6,5.2,6.3,8.2,4.5c3-1.7,3-4.7,0.4-9.1l-11.8-20.4l4.3-2.5l11.9,20.5
			c4.1,7.1,3.2,12-2.5,15.3C135.8,948.7,130.6,946.9,127,940.8z"/>
		<path class="st1" d="M155.3,936.7l-3.5-6l7.4-32.3l-2.1-0.6c-0.4,1.3-1.4,3.5-4.6,5.3l-11.7,6.8l-2.3-4l22.5-13l3.1,5.5l-7.5,32.9
			l2.1,0.6c0.5-1.4,1.1-3.2,4.6-5.2l13.6-7.9l2.3,4L155.3,936.7z"/>
	</g>
	<g id="Ellipse_23" transform="translate(100 872)">
		<circle class="st2" cx="48.5" cy="48.5" r="48.5"/>
		<circle class="st3" cx="48.5" cy="48.5" r="47"/>
	</g>
</g>
</svg>
