<?xml version="1.0" standalone="no"?>
<!DOCTYPE svg PUBLIC "-//W3C//DTD SVG 20010904//EN"
 "http://www.w3.org/TR/2001/REC-SVG-20010904/DTD/svg10.dtd">
<svg version="1.0" xmlns="http://www.w3.org/2000/svg"
 width="700.000000pt" height="700.000000pt" viewBox="0 0 700.000000 700.000000"
 preserveAspectRatio="xMidYMid meet">
<metadata>
Created by potrace 1.14, written by Peter Selinger 2001-2017
</metadata>
<g transform="translate(0.000000,700.000000) scale(0.100000,-0.100000)"
fill="#000000" stroke="none">
<path d="M3278 6995 c-1 -1 -42 -5 -89 -9 -47 -4 -95 -8 -105 -10 -10 -2 -48
-7 -84 -12 -36 -4 -67 -8 -70 -9 -3 -1 -25 -5 -50 -9 -25 -4 -101 -21 -170
-38 -69 -16 -135 -31 -147 -34 -13 -2 -78 -23 -145 -45 -325 -108 -611 -248
-883 -433 -103 -70 -87 -58 -230 -171 -573 -457 -1007 -1124 -1190 -1832 -14
-55 -28 -111 -30 -124 -3 -13 -14 -69 -25 -124 -42 -211 -55 -370 -55 -650 0
-194 7 -329 20 -406 2 -13 6 -46 9 -74 47 -410 239 -952 466 -1318 30 -48 60
-95 65 -105 24 -42 133 -191 208 -285 147 -182 310 -348 497 -504 102 -84 305
-233 320 -233 5 0 10 -4 10 -10 0 -5 4 -10 10 -10 5 0 40 -19 77 -43 268 -171
712 -350 1048 -423 74 -16 211 -41 274 -50 25 -3 57 -8 71 -10 163 -25 682
-25 842 1 13 2 46 7 73 10 74 11 87 13 120 19 17 4 46 9 65 12 95 16 309 73
450 121 558 189 1087 540 1480 982 36 41 70 79 76 85 29 30 185 242 240 326
122 187 240 409 315 597 66 163 147 422 175 558 16 75 54 300 60 350 4 33 9
76 11 95 8 70 10 547 2 610 -4 36 -10 94 -14 130 -3 36 -8 72 -10 80 -2 8 -7
35 -10 60 -3 25 -13 79 -21 120 -202 1008 -833 1875 -1730 2378 -346 193 -768
340 -1144 397 -25 4 -53 9 -62 11 -9 1 -43 6 -75 9 -32 4 -76 9 -98 12 -44 5
-541 13 -547 8z m448 -220 c71 -4 131 -8 134 -10 3 -2 33 -6 65 -10 33 -3 83
-10 110 -15 28 -5 64 -12 80 -15 77 -13 93 -17 130 -26 22 -6 48 -13 57 -14
152 -30 456 -143 671 -251 872 -437 1510 -1250 1725 -2195 36 -156 38 -168 61
-344 29 -218 31 -512 6 -740 -11 -97 -16 -131 -35 -240 -25 -138 -24 -134 -49
-230 -12 -44 -24 -89 -26 -100 -3 -12 -23 -75 -46 -140 -283 -821 -852 -1477
-1619 -1869 -162 -83 -220 -108 -400 -173 -116 -41 -379 -114 -460 -127 -19
-3 -75 -12 -125 -20 -159 -26 -317 -38 -495 -38 -127 0 -320 9 -358 17 -9 1
-46 6 -82 10 -162 17 -457 87 -642 151 -1070 372 -1879 1273 -2127 2369 -16
72 -32 146 -35 165 -3 19 -8 46 -11 60 -3 14 -7 51 -10 84 -3 32 -7 62 -9 65
-15 24 -23 470 -11 591 2 25 7 77 10 115 11 136 41 297 91 491 123 477 356
921 688 1309 68 79 278 289 353 352 131 110 321 247 436 314 33 19 73 42 90
53 57 34 240 123 341 166 84 35 336 124 386 135 8 2 62 15 120 28 116 28 245
52 330 63 30 3 66 8 80 9 14 2 81 7 150 11 69 3 126 7 127 8 3 3 175 -2 299
-9z"/>
<path d="M3655 5178 c-93 -55 -199 -115 -235 -135 -36 -20 -69 -39 -75 -43
-10 -8 -410 -240 -500 -290 -311 -174 -780 -453 -779 -465 2 -19 133 -245 142
-245 8 0 12 3 584 333 503 291 459 266 624 359 71 41 142 83 157 93 15 10 29
16 31 14 2 -2 -5 -58 -15 -124 -18 -116 -42 -268 -54 -350 -4 -22 -8 -51 -10
-65 -2 -14 -9 -56 -15 -95 -6 -38 -22 -137 -35 -220 -13 -82 -26 -168 -30
-190 -3 -22 -10 -65 -15 -95 -12 -74 -20 -128 -26 -170 -2 -19 -9 -60 -14 -90
-5 -30 -12 -73 -15 -95 -4 -22 -8 -51 -11 -65 -2 -14 -7 -45 -10 -70 -3 -25
-8 -54 -10 -65 -3 -11 -7 -36 -10 -55 -2 -19 -7 -46 -9 -60 -3 -14 -7 -43 -10
-65 -4 -22 -11 -66 -16 -98 -6 -32 -12 -74 -15 -94 -5 -41 -12 -86 -19 -123
-3 -14 -7 -42 -10 -64 -2 -21 -6 -46 -9 -55 -3 -9 -7 -38 -11 -66 -3 -27 -13
-92 -21 -142 l-15 -93 67 -115 c36 -63 68 -115 71 -115 8 0 66 33 648 370 297
172 556 321 575 332 19 11 56 31 81 46 25 15 159 92 297 172 138 80 252 148
252 152 0 5 -137 248 -143 255 -1 1 -63 -34 -137 -77 -74 -44 -146 -85 -160
-93 -27 -14 -286 -163 -337 -194 -26 -15 -261 -150 -442 -255 -25 -14 -125
-71 -221 -127 -96 -55 -175 -99 -177 -97 -2 1 1 27 7 57 5 30 12 72 15 94 9
61 37 237 55 345 5 30 12 78 15 105 4 28 8 57 10 65 2 8 7 38 10 65 4 28 8 57
10 65 5 18 11 57 20 120 3 25 12 83 20 130 8 47 17 103 20 125 3 23 7 50 9 60
2 11 9 56 16 100 7 44 14 89 16 100 2 11 11 67 19 125 19 129 20 133 40 250 9
52 18 111 21 130 6 48 36 237 48 310 7 45 43 273 51 324 4 31 -1 48 -24 90
-16 28 -36 62 -43 76 -36 66 -61 100 -71 99 -7 0 -88 -46 -182 -101z"/>
<path d="M1545 3961 c-6 -5 -66 -41 -135 -81 -69 -39 -129 -75 -134 -80 -5 -5
5 -30 23 -59 17 -28 31 -53 31 -55 0 -2 52 -92 115 -201 63 -108 115 -199 115
-200 0 -2 23 -40 50 -85 28 -45 50 -83 50 -86 0 -2 45 -81 100 -175 55 -94
100 -173 100 -175 0 -3 8 -17 19 -32 10 -15 108 -182 216 -372 109 -190 245
-426 303 -525 167 -287 224 -415 239 -532 4 -32 7 -60 6 -63 -1 -3 -4 -22 -7
-43 -15 -93 -97 -188 -228 -264 -43 -25 -78 -50 -78 -55 0 -5 32 -65 72 -133
l72 -124 25 16 c13 8 40 25 60 36 216 122 372 287 411 437 19 73 21 81 21 160
0 161 -59 345 -182 563 -29 50 -60 106 -69 122 -9 17 -73 127 -142 245 -69
118 -136 235 -150 260 -14 25 -106 185 -205 355 -98 171 -289 500 -423 733
-134 232 -249 422 -255 422 -6 0 -15 -4 -20 -9z"/>
</g>
</svg>
